<?xml version="1.0" encoding="UTF-8"?>
<svg id="Layer_1" xmlns="http://www.w3.org/2000/svg" version="1.1" viewBox="0 0 526.9 214.8">
  <!-- Generator: Adobe Illustrator 30.5.1, SVG Export Plug-In . SVG Version: 2.1.4 Build 3)  -->
  <defs>
    <style>
      .st0 {
        fill: #273070;
      }

      .st1 {
        fill: #32b34a;
      }
    </style>
  </defs>
  <g>
    <g>
      <path class="st0" d="M144.1,153.4c-36.9,10.1-75.8,10.1-112.6,0C12.9,148.3,0,131.5,0,112.3v-63.6C0,29.5,12.9,12.6,31.4,7.6c36.9-10.1,75.8-10.1,112.6,0,18.5,5.1,31.4,21.9,31.4,41.1,0,10.6,0,21.2,0,31.8,0,10.6,0,21.2,0,31.8,0,19.2-12.9,36-31.4,41.1Z"/>
      <g>
        <path class="st1" d="M87.8,67.7c-3.8,0-7.1-1.9-9-5.2l-17.2-29.9c-1.8-3.1-1.9-6.9-.2-10,7.3-13.7,16.7-21.3,26.5-21.3s19.3,7.6,26.5,21.3c1.6,3.1,1.5,6.9-.2,10l-17.3,29.9c-1.9,3.3-5.3,5.2-9,5.2h0Z"/>
        <path class="st1" d="M33.2,79.3c-3.6,0-6.9-1.8-8.8-4.8-8.3-13.2-10.1-25.1-5.2-33.6,4.6-7.9,14.9-12.3,29-12.3s1.8,0,2.8,0c3.5.1,6.8,2.1,8.6,5.2l17.2,29.8c1.9,3.3,1.9,7.2,0,10.4-1.9,3.3-5.3,5.2-9,5.2h-34.5Z"/>
        <path class="st1" d="M107.9,79.3c-3.8,0-7.1-1.9-9-5.2-1.9-3.3-1.9-7.2,0-10.4l17.2-29.8c1.8-3.1,5.1-5.1,8.6-5.2.9,0,1.9,0,2.8,0,14.1,0,24.4,4.4,29,12.3,4.9,8.5,3.1,20.5-5.2,33.6-1.9,3-5.2,4.8-8.8,4.8h-34.5Z"/>
        <path class="st1" d="M127.4,132.4c-.9,0-1.8,0-2.8,0-3.5-.1-6.8-2.1-8.6-5.2l-17.2-29.8c-1.9-3.3-1.9-7.2,0-10.4,1.9-3.3,5.3-5.2,9-5.2h34.5c3.6,0,6.9,1.8,8.8,4.8,8.3,13.2,10.1,25.1,5.2,33.6-4.6,7.9-14.9,12.3-29,12.3h0Z"/>
        <path class="st1" d="M48.1,132.4c-14.1,0-24.4-4.4-29-12.3-4.9-8.5-3.1-20.5,5.2-33.6,1.9-3,5.2-4.8,8.8-4.8h34.4c3.8,0,7.1,1.9,9,5.2,1.9,3.3,1.9,7.2,0,10.4l-17.2,29.8c-1.8,3.1-5.1,5.1-8.6,5.2-.9,0-1.8,0-2.7,0h0Z"/>
        <path class="st1" d="M87.8,159.8c-9.8,0-19.3-7.6-26.5-21.3-1.6-3.1-1.5-6.9.2-10l17.3-29.9c1.9-3.3,5.3-5.2,9-5.2s7.1,1.9,9,5.2l17.3,29.9c1.8,3.1,1.9,6.9.2,10-7.3,13.7-16.7,21.3-26.5,21.3Z"/>
      </g>
    </g>
    <g>
      <path class="st0" d="M228.3,23.2c22.4,0,30.3,14.8,30.3,30.2s-6.7,30.4-30.1,30.4-30.3-14.9-30.3-30.2,6.8-30.4,30.1-30.4ZM210.5,53.5c0,9,3.2,21.9,18,21.9s17.8-12,17.8-21.9-3.1-22-18-22-17.8,11.9-17.8,21.9Z"/>
      <path class="st0" d="M280.7,59v11.6c0,3.7,1.1,4.2,4.1,4.2h1.5c1.6,0,1.8.4,1.8,1.4v4.8c0,1.4-.3,1.7-1.8,1.7h-22.9c-1.4,0-1.8-.3-1.8-1.7v-4.8c0-1,.3-1.4,1.8-1.4h1.5c3,0,4.1-.7,4.1-4.2v-34.6c0-2.8-.7-3.8-2.8-4-.9,0-1.9,0-2.4,0-1.4,0-2.1,0-2.1-1.6v-4.5c0-1.4.4-1.7,1.9-1.7h21.9c16.8,0,26.3,4.1,26.3,17.1s-4.8,14.3-12.3,16.5c3.8,2.1,6,6.5,10.1,14.9,1,2.1,2,2.5,3.9,2.5s1.7-.2,2.8-.4c.7-.2,1.3,0,1.3.8v5c0,.8,0,1.5-1.6,2.2-1.3.6-3.7.9-6.3.9-5.6,0-8.4-1.7-11.1-7.1-2.8-5.8-6.1-17.5-14.9-17.5h-2.8ZM286.7,51.9c8.8,0,12.8-3.7,12.8-10.5s-4.5-9.7-13.3-9.7h-5.4v20.1h5.9Z"/>
      <path class="st0" d="M350.9,74.1c7.6,0,14.1-2.3,17.3-3.5,2.4-.9,2.9-1,2.9,1.6v4.7c0,1.3-.2,1.8-1.5,2.5-2.4,1.3-8.9,4.1-19.3,4.1-18.8,0-31.4-9.6-31.4-29.5s10.8-30.8,30.5-30.8,21,8.7,21,15.5-3.6,7.2-7.2,7.2-6.9-2.7-6.9-6.9,1-4.3,2.4-5.6c-2.2-1.1-5.1-1.7-8.5-1.7-13.7,0-18.9,10.2-18.9,22.2s5.9,20.1,19.7,20.1Z"/>
      <path class="st0" d="M377.2,31.9h-1.1c-1.4,0-1.7-.4-1.7-1.5v-4.7c0-1.4.4-1.7,1.7-1.7h21.8c1.3,0,1.7.3,1.7,1.7v4.7c0,1.1-.3,1.5-1.7,1.5h-1.1c-2.9,0-3.9.5-3.9,4.2v13.2h24.5v-13.2c0-3.5-1.1-4.2-4-4.2h-1.1c-1.4,0-1.7-.4-1.7-1.5v-4.7c0-1.4.4-1.7,1.7-1.7h21.8c1.3,0,1.6.3,1.6,1.7v4.7c0,1.1-.2,1.5-1.6,1.5h-1.1c-3,0-3.9.5-3.9,4.2v34.4c0,3.7,1.1,4.2,3.9,4.2h1.1c1.5,0,1.7.4,1.7,1.4v4.8c0,1.4-.4,1.7-1.7,1.7h-21.8c-1.3,0-1.7-.3-1.7-1.7v-4.8c0-1,.3-1.4,1.7-1.4h1.1c2.8,0,4-.7,4-4.2v-13.6h-24.5v13.6c0,3.7,1.1,4.2,4,4.2h1.1c1.5,0,1.7.4,1.7,1.4v4.8c0,1.4-.4,1.7-1.7,1.7h-21.7c-1.4,0-1.8-.3-1.8-1.7v-4.8c0-1,.3-1.4,1.8-1.4h1c2.8,0,4-.7,4-4.2v-34.4c0-3.5-1.1-4.2-4-4.2Z"/>
      <path class="st0" d="M443.1,31.9h-1.1c-1.4,0-1.7-.4-1.7-1.5v-4.7c0-1.4.4-1.7,1.7-1.7h21.8c1.3,0,1.7.3,1.7,1.7v4.7c0,1.1-.3,1.5-1.7,1.5h-1.1c-2.9,0-3.9.5-3.9,4.2v34.4c0,3.7,1.1,4.2,4,4.2h1.1c1.5,0,1.7.4,1.7,1.4v4.8c0,1.4-.4,1.7-1.7,1.7h-21.7c-1.4,0-1.8-.3-1.8-1.7v-4.8c0-1,.3-1.4,1.8-1.4h1c2.8,0,4-.7,4-4.2v-34.4c0-3.5-1.1-4.2-4-4.2Z"/>
      <path class="st0" d="M476.9,35.6c0-2.8-1.1-3.7-5.2-3.7s-1.5-.6-1.5-1.6v-4.5c0-1.4.4-1.7,1.8-1.7h21.8c22.6,0,33.1,9.8,33.1,29.4s-12.2,29.2-33.4,29.2h-21.7c-1.2,0-1.7-.3-1.7-1.7v-4.2c0-1.4.4-1.9,1.5-1.9,4.2,0,5.3-.6,5.3-4.2v-35ZM493.4,74.2c14.5,0,21.2-5.8,21.2-20.7s-7.6-21.3-21.8-21.3h-4.3v42h4.9Z"/>
    </g>
    <g>
      <path class="st0" d="M239.8,132.2c-8.3,0-12.6-4.2-12.6-11.8v-14.6c0-1.7-.4-2.1-1.8-2.1h-1c-.7,0-.8-.1-.8-.7v-1.8c0-.7.2-.8.8-.8h10.6c.6,0,.8.1.8.8v1.8c0,.6-.1.7-.8.7h-1c-1.4,0-1.8.3-1.8,2.1v14.1c0,5.7,2.7,8.4,7.8,8.4s8.1-2.5,8.1-8.5v-14.2c0-1.5-.5-1.8-1.9-1.8h-1c-.7,0-.8-.1-.8-.7v-1.8c0-.7.2-.8.8-.8h9.9c.6,0,.8.1.8.8v1.8c0,.6,0,.7-.8.7h-1c-1.4,0-1.8.3-1.8,1.8v14.4c0,8.3-4.4,12.2-12.3,12.2Z"/>
      <path class="st0" d="M286.6,132.2h-1.3c-.5,0-.9,0-1.3-.6l-17.2-23.2v18.4c0,1.4.5,1.7,1.9,1.7h.9c.7,0,.8,0,.8.7v1.9c0,.7-.2.8-.8.8h-9.6c-.6,0-.8-.1-.8-.8v-1.9c0-.6.1-.7.8-.7h.9c1.4,0,2-.3,2-1.7v-21.6c0-1.3-.6-1.5-1.8-1.5h-1c-.7,0-.8-.1-.8-.6v-2c0-.6.2-.7.8-.7h5.7c.7,0,1.1.2,1.4.7l16.2,22.7v-18.3c0-1.4-.5-1.7-1.9-1.7h-.9c-.7,0-.8,0-.8-.7v-1.9c0-.7.2-.8.8-.8h9.6c.6,0,.8.1.8.8v1.9c0,.6-.1.7-.8.7h-.9c-1.4,0-2,.3-2,1.7v26.2c0,.5-.2.7-.9.7Z"/>
      <path class="st0" d="M296.9,103.7h-1c-.7,0-.8-.1-.8-.7v-1.8c0-.7.2-.8.8-.8h10.6c.6,0,.8.1.8.8v1.8c0,.6-.1.7-.8.7h-1c-1.4,0-1.8.3-1.8,2.1v20.7c0,1.8.5,2.1,1.9,2.1h1c.7,0,.8.1.8.7v1.9c0,.6-.2.8-.8.8h-10.6c-.6,0-.8-.2-.8-.8v-1.9c0-.5.1-.7.8-.7h1c1.4,0,1.9-.4,1.9-2.1v-20.7c0-1.7-.4-2.1-1.8-2.1Z"/>
      <path class="st0" d="M325.5,127.7l7.1-22.1c.5-1.5,0-1.8-1.4-1.9h-.5c-.7,0-.9-.3-.9-.9v-1.6c0-.7.2-.8.8-.8h8.7c.6,0,.7.1.7.8v1.7c0,.6-.1.8-.8.9h-1.2c-.7,0-1.1.3-1.7,2.1l-8.3,25.7c-.2.5-.3.7-1,.7h-4c-.6,0-.8-.1-1-.6l-8.5-25.5c-.7-2.1-.9-2.3-2.3-2.3h-.8c-.7,0-.9-.2-.9-.8v-1.8c0-.7.1-.8.9-.8h9.8c.7,0,.9.1.9.8v1.7c0,.6-.2.7-.9.8h-.5c-1,.1-1.5.3-1.5,1s0,.7.3,1.3l7,21.8Z"/>
      <path class="st0" d="M345,103.8h-1.6c-.6,0-.7-.2-.7-.8v-1.8c0-.7.2-.8.9-.8h20.1c1.6,0,1.9,0,2,2.1l.3,5c0,.8,0,1-.8,1h-1.9c-.7,0-.9-.1-1-1l-.2-1.8c-.2-2-1.2-2.1-4.8-2.1h-6.2v11h4.1c.7,0,1.3-.2,1.4-1.2v-1.4c.2-.7.3-.8,1-.8h1.7c.7,0,.7.2.7.8v8.6c0,.6,0,.8-.7.8h-1.7c-.6,0-.8-.2-.9-.8v-1.4c-.3-1-.8-1.3-1.5-1.3h-4.1v10.6h8c2.9,0,3.3-.2,3.8-2.4l.3-2.7c.1-.6.3-.8,1-.8h1.9c.7,0,.8.3.7.9l-.7,6.9c-.1,1.4-.5,1.4-1.5,1.4h-21.2c-.6,0-.8-.1-.8-.8v-1.7c0-.7.3-.9.7-.9,2.4,0,2.9-.3,2.9-2.1v-20.9c0-1.3-.3-1.7-1.4-1.8Z"/>
      <path class="st0" d="M379.9,119.1v7.3c0,1.8.5,2.1,2,2.1h1.2c.7,0,.8.1.8.7v1.9c0,.6-.1.8-.8.8h-11.2c-.7,0-.8-.2-.8-.8v-1.9c0-.5.1-.7.8-.7h1.2c1.4,0,2-.4,2-2.1v-20.9c0-1.3-.3-1.7-1.4-1.8h-1.7c-.6,0-1,0-1-.8v-1.8c0-.7.2-.8.9-.8h11c8.5,0,13.2,2.5,13.2,9.2s-2.6,7.9-6.7,9c2.2,1.1,3.4,3.5,5.8,8.6.7,1.4,1.1,1.7,2.3,1.7s1,0,1.5-.2c.4,0,.6,0,.6.4v1.9c0,.5,0,.8-.8,1.1-.7.3-1.7.4-2.8.4-2.8,0-4.1-1.1-5.4-3.7-1.5-3.2-3.3-9.5-8.2-9.5h-2.5ZM383.6,116c5,0,7.4-2.1,7.4-6.3s-2.6-6-7.7-6h-3.4v12.4h3.7Z"/>
      <path class="st0" d="M420.3,104.7c-1.5-.9-3.5-1.3-5.7-1.3-3.6,0-6.2,1-6.2,4.1,0,7.6,17.2,2.8,17.2,15.8s-4.8,9.1-12,9.1-11-2.3-11-7.4,1.3-3.3,3.2-3.3,3.1,1.2,3.1,3.1-.6,2.2-1.4,2.7c1.6,1,3.9,1.4,6.2,1.4,4.1,0,7.1-1.3,7.1-5.3,0-9.5-17.2-4.1-17.2-15.5s4.3-8.3,11.1-8.3,10.5,2.8,10.5,7.2-1.5,3.1-3.1,3.1-3-1.1-3-3,.5-2,1.3-2.5Z"/>
      <path class="st0" d="M431.8,103.7h-1c-.7,0-.8-.1-.8-.7v-1.8c0-.7.2-.8.8-.8h10.6c.6,0,.8.1.8.8v1.8c0,.6-.1.7-.8.7h-1c-1.4,0-1.8.3-1.8,2.1v20.7c0,1.8.5,2.1,1.9,2.1h1c.7,0,.8.1.8.7v1.9c0,.6-.2.8-.8.8h-10.6c-.6,0-.8-.2-.8-.8v-1.9c0-.5.1-.7.8-.7h1c1.4,0,1.9-.4,1.9-2.1v-20.7c0-1.7-.4-2.1-1.8-2.1Z"/>
      <path class="st0" d="M452.5,131.1v-1.9c0-.5.1-.7.8-.7h1c1.3,0,1.8-.3,1.9-1.7v-22.9h-3.2c-2.5,0-3.1,0-3.3,1.4l-.2,2.4c0,.7-.3.7-.9.7h-2c-.7,0-.7-.2-.7-.8l.3-5.9c0-1.4.3-1.5,1.4-1.5h22c1.1,0,1.4,0,1.4,1.5l.3,5.9c0,.6,0,.8-.7.8h-2c-.7,0-.9-.1-1-.7l-.2-2.4c-.2-1.4-.8-1.4-3.5-1.4h-3v22.5c0,1.8.5,2.1,1.9,2.1h1c.7,0,.8.1.8.7v1.9c0,.6-.2.8-.8.8h-10.6c-.6,0-.8-.2-.8-.8Z"/>
      <path class="st0" d="M484.8,126.5v-7.5l-7.4-13.1c-1-1.7-1.5-2.1-2.6-2.1h-.9c-.7,0-.8-.3-.8-.9v-1.7c0-.7.2-.8.8-.8h9.8c.6,0,.8.1.8.8v1.6c0,.6-.2.9-.8.9h-.8c-1,0-1.2.3-.6,1.4l5.5,10.3,5.9-10.4c.6-1,.1-1.3-.6-1.3h-.8c-.7,0-.8-.4-.8-1v-1.6c0-.7.2-.8.8-.8h8.5c.6,0,.7.2.7.8v1.7c0,.6-.1.9-.8.9h-1c-.7,0-1,.1-1.8,1.6l-8.2,13.5v8c0,1.4.6,1.7,1.9,1.7h1c.7,0,.8.1.8.7v1.9c0,.6-.2.8-.8.8h-10.6c-.6,0-.8-.2-.8-.8v-1.9c0-.5.1-.7.8-.7h1c1.4,0,1.9-.4,1.9-2.1Z"/>
    </g>
  </g>
  <g>
    <path class="st0" d="M47.8,201.9c0,1.5,1,2.6,2.6,2.6s2.6-1.1,2.6-2.6v-17.5h2.9c1.2,0,2.1-.9,2.1-2s-.8-2-2.1-2H8.4c-1.2,0-2.1.9-2.1,2s.8,2,2.1,2h7c.3.9.5,1.7.5,2.5v.4c0,1.9-1.3,2.9-3.4,2.9h-.2c-.6,0-1,.1-1.4.4-.5.4-.7,1.1-.7,2.2,0,5.5,3.9,8.3,9.1,8.3s4.4-.7,5.8-2.3v3c0,1.6,1.1,2.7,2.6,2.7s2.6-1.1,2.6-2.7v-17.5h17.6v3.5h-4.5c-5.2,0-8.5,2.6-8.5,7.5s.7,4.9,1.8,6.9c.7,1.5,1.6,2.2,2.8,2.2s2.4-.8,2.4-2.1-.3-1.2-.5-1.9c-.7-1.6-1.1-3.2-1.1-4.5,0-2.6,1.4-3.9,4.4-3.9h3.3v9.8ZM25,192.7c-.3,3.4-2.8,4.3-5,4.3s-4.4-.9-4.9-3.5c3.2-.1,5.7-2.3,5.7-5.8v-.4c0-.8-.2-1.9-.4-2.9h4.6v8.4Z"/>
    <path class="st0" d="M56.2,211.6c0-.5-.2-1-.5-1.6l-1.5-2.6c-.6-1.1-1.4-1.9-2.7-1.9s-2.2.9-2.2,2,.1,1,.4,1.5l1.5,2.8c.6,1.2,1.4,1.9,2.8,1.9s2.2-.9,2.2-2.1Z"/>
    <path class="st0" d="M118.5,208.7c0-2.2-1.1-4.3-3.6-5.3.3-.4.5-1,.5-1.6v-17.5h2.9c1.2,0,2.1-.9,2.1-2s-.8-2-2.1-2h-3.5c-2-.2-3.2-1.2-3.2-3.3v-.5c0-2,1.2-3,3.2-3s.8,0,1.3,0c1.2,0,1.9-.8,1.9-1.8s-.5-1.7-1.4-2.1c-.7-.3-1.7-.4-2.8-.4-4.3,0-7,2.2-7,5.9v.3c0,2.4,1.2,4,2.9,4.7h-45.5c-1.2,0-2.1.9-2.1,2s.8,2,2.1,2h13.2v4.5c-1.2-1.3-2.9-1.9-4.8-1.9-3.7,0-6.7,2-6.7,7v.7c0,5,3,7,6.7,7s3.7-.5,4.8-1.8v2.1c0,1.5,1,2.6,2.5,2.6s2.5-1.1,2.5-2.6v-8.2c.2-2.2,1.6-2.9,3.4-2.9s2.9,1,2.9,3.1v.6c0,1.3-.5,2.1-1.2,2.5-.7.4-1.2.4-1.8.7-.5.2-1.1.6-1.1,1.7s.4,1.5,1,1.8c.5.3,1.1.4,1.9.4,3.5,0,6.4-2,6.4-7v-.6c0-5-2.9-7-6.6-7s-3.7.5-4.9,1.9v-4.5h27.8v3.5h-4.5c-5.2,0-8.5,2.6-8.5,7.5s.7,4.9,1.8,6.9c.7,1.5,1.6,2.2,2.8,2.2s2.4-.8,2.4-2.1-.3-1.2-.5-1.9c-.7-1.6-1.1-3.2-1.1-4.5,0-2.6,1.4-3.9,4.4-3.9h3.3v9.8c0,.4.1.8.3,1.1-.5,0-1.1,0-1.6.3-.9.4-1.6,1-1.6,2.1s.8,1.7,1.8,1.7.8-.1,1.2-.2c.3,0,.7-.1,1-.1,1.6,0,2.4.7,2.4,1.9s-.8,1.9-2.8,1.9-2.2-.2-3.4-.6c-.4-.1-.8-.3-1.2-.3-1.1,0-2,.7-2,1.9s1,2.1,2.4,2.5c1.4.4,3,.6,4.6.6,4.8,0,7.2-2.5,7.2-6.1ZM77.5,194.8c-.2,2.2-1.3,3-3.3,3s-3-1.1-3-3.2v-.7c0-2.1,1.2-3.2,3-3.2s3.1.7,3.4,2.9v1.1Z"/>
    <path class="st0" d="M117.8,176.9c0-1-.8-1.8-1.9-1.8s-1.9.8-1.9,1.8v.2c0,1,.8,1.8,1.9,1.8s1.9-.8,1.9-1.8v-.2Z"/>
    <path class="st0" d="M140.5,201.9c0,1.5,1,2.6,2.6,2.6s2.6-1.1,2.6-2.6v-17.6h2.9c1.2,0,2.1-.9,2.1-2s-.8-2-2.1-2h-21.8c-1.2,0-2.1.9-2.1,2s.8,2,2.1,2h13.7v5.2h-8.3c-2.5,0-3.9,1.3-3.9,3.2v.3c0,.9.2,1.8.6,2.7l.3.7c.6,1.3,1.5,2,2.8,2s2-.6,2-1.8,0-.4,0-.8c0-.4,0-.6,0-.8h0c0-.8.2-1.1.9-1.1h5.7v7.9Z"/>
    <path class="st0" d="M169.1,200.5l-4.2-4.8c4.1-.2,8.4-2.3,8.4-8.1v-.9c0-5.5-3.5-6.9-6.8-6.9s-6.4,1.5-6.4,5.8v.3c0,.8.2,1.6.5,2.1.4.8,1.1,1.2,2,1.2s.9,0,1.3-.3c.5-.3.7-.7.8-1.3,0-.4,0-.8,0-1.3v-.4c0-1.7.8-2.4,1.8-2.4s1.9.7,1.9,2.5v1.2c0,3.5-3,4.4-5.8,4.4s-.5,0-1.1,0c-.5,0-.7,0-.9,0-1.2,0-2.1.8-2.1,1.9s.3,1.8,1.4,3.1l4.5,5.7c1,1.2,1.8,2.1,3.3,2.1,2.1,0,2.9-2.3,1.4-3.9Z"/>
    <path class="st0" d="M245.7,201.9c0,1.5,1,2.6,2.6,2.6s2.6-1.1,2.6-2.6v-17.5h2.9c1.2,0,2.1-.9,2.1-2s-.8-2-2.1-2h-3.4l-4.8-6.8c-.8-1.1-1.6-1.9-2.8-1.9s-2.4,1-2.4,2.2.3,1.3.8,2c1.7,2.2,2.7,3.3,3.8,4.5h-66.8c-1.2,0-2,.9-2,2v19.5c0,1.6,1.1,2.7,2.6,2.7s2.6-1.1,2.6-2.7v-17.5h16v4.5c-1.2-1.3-2.9-1.9-4.8-1.9-3.7,0-6.7,2-6.7,7v.7c0,5,3,7,6.7,7s3.7-.5,4.8-1.8v2.1c0,1.5,1,2.6,2.5,2.6s2.5-1.1,2.5-2.6v-7.9c.2-2.2,1.6-2.9,3.4-2.9s1.6.3,2.2.9c0,.2,0,.4,0,.7,0,5.5,3.9,8.3,9.1,8.3s4.4-.7,5.8-2.3v3c0,1.6,1.1,2.7,2.6,2.7s2.6-1.1,2.6-2.7v-17.5h17.5v3.5h-4.5c-5.2,0-8.5,2.6-8.5,7.5s.7,4.9,1.8,6.9c.7,1.5,1.6,2.2,2.8,2.2s2.4-.8,2.4-2.1-.3-1.2-.5-1.9c-.7-1.6-1.1-3.2-1.1-4.5,0-2.6,1.4-3.9,4.4-3.9h3.3v9.8ZM197.5,194.8c-.2,2.2-1.3,3-3.3,3s-3-1.1-3-3.2v-.7c0-2.1,1.2-3.2,3-3.2s3.1.7,3.4,2.9v1.1ZM202.6,184.3h10.7c.3.9.5,1.7.5,2.5v.4c0,1.3-.6,2.1-1.6,2.5-1.1-1.7-2.8-2.5-4.7-2.5s-3.7.5-4.9,1.9v-4.8ZM222.9,192.7c-.3,3.4-2.8,4.3-5,4.3s-4.4-.9-4.9-3.5c3.2-.1,5.7-2.3,5.7-5.8v-.4c0-.8-.2-1.9-.4-2.9h4.6v8.4Z"/>
    <path class="st0" d="M299.6,201.9c0,1.5,1,2.6,2.6,2.6s2.6-1.1,2.6-2.6v-17.5h2.9c1.2,0,2.1-.9,2.1-2s-.8-2-2.1-2h-45.6c-1.2,0-2.1.9-2.1,2s.8,2,2.1,2h14.7v3.5h-4.5c-5.2,0-8.5,2.6-8.5,7.5s.7,4.9,1.8,6.9c.7,1.5,1.6,2.2,2.8,2.2s2.4-.8,2.4-2.1-.3-1.2-.5-1.9c-.7-1.6-1.1-3.2-1.1-4.5,0-2.6,1.4-3.9,4.4-3.9h3.3v9.8c0,1.5,1,2.6,2.6,2.6s2.6-1.1,2.6-2.6v-17.5h17.5v3.5h-4.5c-5.2,0-8.5,2.6-8.5,7.5s.7,4.9,1.8,6.9c.7,1.5,1.6,2.2,2.8,2.2s2.4-.8,2.4-2.1-.3-1.2-.5-1.9c-.7-1.6-1.1-3.2-1.1-4.5,0-2.6,1.4-3.9,4.4-3.9h3.3v9.8Z"/>
    <path class="st0" d="M301.1,207.5c0,.5.1,1,.4,1.5l1.5,2.8c.6,1.2,1.4,1.9,2.8,1.9s2.2-.9,2.2-2.1-.2-1-.5-1.6l-1.5-2.6c-.6-1.1-1.4-1.9-2.7-1.9s-2.2.9-2.2,2Z"/>
    <path class="st0" d="M421.1,201.9c0,1.5,1,2.6,2.6,2.6s2.6-1.1,2.6-2.6v-17.6h2.9c1.2,0,2.1-.9,2.1-2s-.8-2-2.1-2h-62.3c-1.9-.2-3.2-.9-3.2-2.6h0c0-1.7,1.1-2.4,2.9-2.4s.7,0,.9,0c1.3,0,2-.8,2-2s-.7-1.9-2-2.3c-.6-.2-1.3-.2-2.1-.2-4.4,0-6.6,2.2-6.6,5.2v.3c0,2.2,1.1,3.4,2.7,4.1h-45.5c-1.2,0-2.1.9-2.1,2s.8,2,2.1,2h13.2v4.5c-1.2-1.3-2.9-1.9-4.8-1.9-3.7,0-6.7,2-6.7,7v.7c0,5,3,7,6.7,7s3.7-.5,4.8-1.8v2.1c0,1.5,1,2.6,2.5,2.6s2.5-1.1,2.5-2.6v-8.2c.2-2.2,1.6-2.9,3.4-2.9s2.9,1,2.9,3.1v.6c0,1.3-.5,2.1-1.2,2.5-.7.4-1.2.4-1.8.7-.5.2-1.1.6-1.1,1.7s.4,1.5,1,1.8c.5.3,1.1.4,1.9.4,3.5,0,6.4-2,6.4-7v-.6c0-5-2.9-7-6.6-7s-3.7.5-4.9,1.9v-4.5h27.8v3.5h-4.5c-5.2,0-8.5,2.6-8.5,7.5s.7,4.9,1.8,6.9c.7,1.5,1.6,2.2,2.8,2.2s2.4-.8,2.4-2.1-.3-1.2-.5-1.9c-.7-1.6-1.1-3.2-1.1-4.5,0-2.6,1.4-3.9,4.4-3.9h3.3v9.8c0,1.5,1,2.6,2.6,2.6s2.6-1.1,2.6-2.6v-17.5h21.5c.3.9.5,1.7.5,2.5v.4c0,1.9-1.3,2.9-3.4,2.9h-.2c-.6,0-1,.1-1.4.4-.5.4-.7,1.1-.7,2.2s.2,1.9.4,2.7c-.4,1.9-1.8,2.8-3.6,2.8s-3.4-1.2-3.4-3.4v-1.1c0-2.3,1.4-3.1,3.1-3.1s.6,0,.8,0c.8,0,1.7-.5,1.7-1.8s-.4-1.4-1.1-1.8c-.7-.3-1.5-.4-2.7-.4-3.9,0-7,2-7,7.1v.9c0,5.1,3.3,7.1,7.6,7.1s4.8-.9,6.5-3.3c1.6,1.6,4,2.4,6.8,2.4s4.4-.7,5.8-2.3v3c0,1.6,1.1,2.7,2.6,2.7s2.6-1.1,2.6-2.7v-17.5h6.2v7.4c-1,.4-1.7,1.3-1.7,2.5v.4c0,1.2.7,2.2,1.8,3.3.8.8,1.5,1.4,2.6,1.4s2.3-.7,2.3-2v-1.5h6.2v5.9ZM329.3,194.8c-.2,2.2-1.3,3-3.3,3s-3-1.1-3-3.2v-.7c0-2.1,1.2-3.2,3-3.2s3.1.7,3.4,2.9v1.1ZM398.5,192.7c-.3,3.4-2.8,4.3-5,4.3s-4.4-.9-4.9-3.5c3.2-.1,5.7-2.3,5.7-5.8v-.4c0-.8-.2-1.9-.4-2.9h4.6v8.4ZM414.9,191.4v-7.1h6.2v7.1h-6.2Z"/>
    <path class="st0" d="M422.6,207.5c0,.5.1,1,.4,1.5l1.5,2.8c.6,1.2,1.4,1.9,2.8,1.9s2.2-.9,2.2-2.1-.2-1-.5-1.6l-1.5-2.6c-.6-1.1-1.4-1.9-2.7-1.9s-2.2.9-2.2,2Z"/>
    <path class="st0" d="M469.9,180.3h-9c-1.2,0-2.1.9-2.1,2v8.9h-8c2.1-.5,3.7-2.3,3.7-5.1h0c0-4.2-3.2-6.3-7.9-6.3s-2.6.2-3.7.5c-1.4.4-2.3,1.1-2.3,2.3s.7,1.8,2,1.8.9-.1,1.5-.3c.6-.1,1.2-.2,1.9-.2,1.5,0,3.3.5,3.3,2.5h0c0,2.1-1.6,2.6-4,2.6h-.2c-1.3,0-2.2.6-2.2,1.8s.9,1.9,2.2,1.9h.1c2.4,0,4.2.7,4.2,2.8h0c0,2.3-1.8,2.9-3.7,2.9s-1.8-.2-2.4-.3c-.5-.1-.9-.2-1.4-.2-1.1,0-2,.6-2,1.9s.9,1.9,2.2,2.3c1.1.3,2.6.5,4.3.5,4.5,0,8.1-1.8,8.1-6.1h0c0-.8-.1-1.4-.3-1.9,1.4.2,2.7.3,3.7.3h.7v6.6c0,1.6,1.1,2.7,2.6,2.7s2.6-1.1,2.6-2.7v-17.5h5.7v17.5c0,1.6,1.1,2.7,2.6,2.7s2.6-1.1,2.6-2.7v-17.5h9.3c.4,1.1.6,2.2.6,3.6v.4c0,2.4-1.2,3.3-2.7,3.5-.2,0-.5,0-.6,0-.1,0-.2,0-.3,0-1.2,0-2,.7-2,1.9s.2,1.4.7,2.1l4.3,6.5c.9,1.3,1.7,2.2,3.1,2.2,2.1,0,3.1-1.9,1.6-4l-3.8-5.3h10s0,0,0,.1c0,2.6.7,4.9,1.8,6.9.7,1.5,1.6,2.2,2.8,2.2s2.4-.8,2.4-2.1-.3-1.2-.5-1.9c-.7-1.6-1.1-3.2-1.1-4.5,0-2.6,1.4-3.9,4.4-3.9h3.3v9.8c0,1.5,1,2.6,2.6,2.6s2.6-1.1,2.6-2.6v-17.5h2.9c1.2,0,2.1-.9,2.1-2s-.8-2-2.1-2h-41.2c.4-3.4,3-5.7,9.5-5.7s15.3,1,24.2,2.6c.5.1,1.2.3,1.6.3,1.3,0,2.1-.8,2.1-2s-.9-2-2.6-2.4c-2.5-.5-5-1-7.6-1.3-6-1-12.2-1.5-17.9-1.5-9.4,0-13.9,4-14.4,10.1ZM508.2,187.8h-4.5c-3.4,0-6,1.2-7.4,3.3h-1.9c-1.7,0-3.5.2-5.3.3.5-.9.9-2,.9-3.6v-.3c0-1-.1-2.1-.4-3.1h18.6v3.5Z"/>
    <path class="st0" d="M521.7,182.5v19.3c0,1.5,1.1,2.7,2.6,2.7s2.6-1.1,2.6-2.7v-19.3c0-1.5-1.1-2.7-2.6-2.7s-2.6,1.1-2.6,2.7Z"/>
  </g>
</svg>